<svg version="1.1" viewBox="0.0 0.0 960.0 540.0" fill="none" stroke="none" stroke-linecap="square" stroke-miterlimit="10" xmlns:xlink="http://www.w3.org/1999/xlink" xmlns="http://www.w3.org/2000/svg"><clipPath id="g111e7b17c30_0_0.0"><path d="m0 0l960.0 0l0 540.0l-960.0 0l0 -540.0z" clip-rule="nonzero"/></clipPath><g clip-path="url(#g111e7b17c30_0_0.0)"><path fill="#ffffff" d="m0 0l960.0 0l0 540.0l-960.0 0z" fill-rule="evenodd"/><path fill="#000000" fill-opacity="0.0" d="m202.12335 127.06993l0 0c0 -39.469032 124.40903 -71.465004 277.87534 -71.465004c153.46628 0 277.87534 31.995972 277.87534 71.465004l0 285.86005c0 39.469025 -124.40906 71.465 -277.87534 71.465c-153.46631 0 -277.87534 -31.995972 -277.87534 -71.465z" fill-rule="evenodd"/><path fill="#000000" fill-opacity="0.0" d="m757.874 127.06993l0 0c0 39.46904 -124.40906 71.46501 -277.87534 71.46501c-153.46631 0 -277.87534 -31.995972 -277.87534 -71.46501" fill-rule="evenodd"/><path fill="#000000" fill-opacity="0.0" d="m202.12335 127.06993l0 0c0 -39.469032 124.40903 -71.465004 277.87534 -71.465004c153.46628 0 277.87534 31.995972 277.87534 71.465004l0 285.86005c0 39.469025 -124.40906 71.465 -277.87534 71.465c-153.46631 0 -277.87534 -31.995972 -277.87534 -71.465z" fill-rule="evenodd"/><path stroke="#595959" stroke-width="4.0" stroke-linejoin="round" stroke-linecap="butt" d="m757.874 127.06993l0 0c0 39.46904 -124.40906 71.46501 -277.87534 71.46501c-153.46631 0 -277.87534 -31.995972 -277.87534 -71.46501" fill-rule="evenodd"/><path stroke="#595959" stroke-width="4.0" stroke-linejoin="round" stroke-linecap="butt" d="m202.12335 127.06993l0 0c0 -39.469032 124.40903 -71.465004 277.87534 -71.465004c153.46628 0 277.87534 31.995972 277.87534 71.465004l0 285.86005c0 39.469025 -124.40906 71.465 -277.87534 71.465c-153.46631 0 -277.87534 -31.995972 -277.87534 -71.465z" fill-rule="evenodd"/><path fill="#0000ff" fill-opacity="0.3464" d="m244.55775 153.46448l0 0c0 -32.180367 105.41109 -58.267708 235.44228 -58.267708c130.03116 0 235.44223 26.087341 235.44223 58.267708l0 233.07086c0 32.18039 -105.41107 58.26773 -235.44223 58.26773c-130.03119 0 -235.44228 -26.087341 -235.44228 -58.26773z" fill-rule="evenodd"/><path fill="#000000" fill-opacity="0.0" d="m715.44226 153.46448l0 0c0 32.180374 -105.41107 58.267715 -235.44223 58.267715c-130.03119 0 -235.44228 -26.087341 -235.44228 -58.267715" fill-rule="evenodd"/><path fill="#000000" fill-opacity="0.0" d="m244.55775 153.46448l0 0c0 -32.180367 105.41109 -58.267708 235.44228 -58.267708c130.03116 0 235.44223 26.087341 235.44223 58.267708l0 233.07086c0 32.18039 -105.41107 58.26773 -235.44223 58.26773c-130.03119 0 -235.44228 -26.087341 -235.44228 -58.26773z" fill-rule="evenodd"/><path stroke="#595959" stroke-width="3.0" stroke-linejoin="round" stroke-linecap="butt" d="m715.44226 153.46448l0 0c0 32.180374 -105.41107 58.267715 -235.44223 58.267715c-130.03119 0 -235.44228 -26.087341 -235.44228 -58.267715" fill-rule="evenodd"/><path stroke="#595959" stroke-width="3.0" stroke-linejoin="round" stroke-linecap="butt" d="m244.55775 153.46448l0 0c0 -32.180367 105.41109 -58.267708 235.44228 -58.267708c130.03116 0 235.44223 26.087341 235.44223 58.267708l0 233.07086c0 32.18039 -105.41107 58.26773 -235.44223 58.26773c-130.03119 0 -235.44228 -26.087341 -235.44228 -58.26773z" fill-rule="evenodd"/><path fill="#0000ff" fill-opacity="0.3464" d="m310.88058 210.60193l0 0c0 -24.872147 75.71735 -45.035004 169.11942 -45.035004c93.4021 0 169.11945 20.162857 169.11945 45.035004l0 180.13998c0 24.872131 -75.71735 45.035004 -169.11945 45.035004c-93.40207 0 -169.11942 -20.162872 -169.11942 -45.035004z" fill-rule="evenodd"/><path fill="#000000" fill-opacity="0.0" d="m649.11945 210.60193l0 0c0 24.872147 -75.71735 45.03499 -169.11945 45.03499c-93.40207 0 -169.11942 -20.162842 -169.11942 -45.03499" fill-rule="evenodd"/><path fill="#000000" fill-opacity="0.0" d="m310.88058 210.60193l0 0c0 -24.872147 75.71735 -45.035004 169.11942 -45.035004c93.4021 0 169.11945 20.162857 169.11945 45.035004l0 180.13998c0 24.872131 -75.71735 45.035004 -169.11945 45.035004c-93.40207 0 -169.11942 -20.162872 -169.11942 -45.035004z" fill-rule="evenodd"/><path stroke="#595959" stroke-width="1.0" stroke-linejoin="round" stroke-linecap="butt" d="m649.11945 210.60193l0 0c0 24.872147 -75.71735 45.03499 -169.11945 45.03499c-93.40207 0 -169.11942 -20.162842 -169.11942 -45.03499" fill-rule="evenodd"/><path stroke="#595959" stroke-width="1.0" stroke-linejoin="round" stroke-linecap="butt" d="m310.88058 210.60193l0 0c0 -24.872147 75.71735 -45.035004 169.11942 -45.035004c93.4021 0 169.11945 20.162857 169.11945 45.035004l0 180.13998c0 24.872131 -75.71735 45.035004 -169.11945 45.035004c-93.40207 0 -169.11942 -20.162872 -169.11942 -45.035004z" fill-rule="evenodd"/><g mask="url(#mask-g111e7b17c30_0_0.1)"><use xlink:href="#g111e7b17c30_0_0.1" transform="matrix(1.0 0.0 0.0 -1.0 0.0 678.9186351706037)"/></g><defs><mask id="mask-g111e7b17c30_0_0.1" maskUnits="userSpaceOnUse" x="244.55905511811022" y="339.45931758530185" width="470.8976377952756" height="74.3307086614173"><linearGradient gradientUnits="userSpaceOnUse" id="gradient-g111e7b17c30_0_0.1" x1="244.55905512428106" y1="339.45761294052596" x2="244.558839858199" y2="398.92354447081266"><stop offset="0%" stop-color="#ffffff" stop-opacity="0.3799999952316284"/><stop offset="100%" stop-color="#ffffff" stop-opacity="0.0"/></linearGradient><rect fill="url(#gradient-g111e7b17c30_0_0.1)" x="244.55905511811022" y="339.45931758530185" width="470.8976377952756" height="74.3307086614173"/></mask></defs><g id="g111e7b17c30_0_0.1"><path fill="#000000" fill-opacity="0.0" d="m244.55905 265.1286l470.8976 0l0 74.33072l-470.8976 0z" fill-rule="evenodd"/><path fill="#000000" d="m301.8688 317.64862l0 -21.359375l-11.28125 21.359375l-7.890625 0l-11.28125 -21.359375l0 21.359375l-8.203125 0l0 -30.40625l11.140625 0l12.296875 23.015625l12.28125 -23.015625l11.109375 0l0 30.40625l-8.171875 0zm17.694061 0l0 -30.40625l30.78125 0l0 6.484375l-22.359375 0l0 5.015625l21.203125 0l0 6.484375l-21.203125 0l0 5.9375l22.671875 0l0 6.484375l-31.09375 0zm56.051514 -23.796875l0 23.796875l-8.203125 0l0 -23.796875l-12.90625 0l0 -6.609375l34.03125 0l0 6.609375l-12.921875 0zm41.010254 18.046875l-16.953125 0l-2.84375 5.75l-9.171875 0l15.921875 -30.40625l9.15625 0l15.921875 30.40625l-9.171875 0l-2.859375 -5.75zm-14.0 -5.9375l11.109375 0l-5.53125 -11.203125l-5.578125 11.203125zm50.1463 -19.5q4.46875 0 8.3125 0.765625q3.84375 0.765625 7.046875 1.953125l0 7.4375q-1.265625 -0.703125 -2.84375 -1.359375q-1.578125 -0.671875 -3.4375 -1.171875q-1.859375 -0.515625 -3.984375 -0.828125q-2.125 -0.3125 -4.46875 -0.3125q-2.921875 0 -5.09375 0.421875q-2.171875 0.421875 -3.71875 1.140625q-1.546875 0.703125 -2.546875 1.640625q-1.0 0.9375 -1.578125 2.0q-0.5625 1.0625 -0.796875 2.171875q-0.21875 1.109375 -0.21875 2.140625q0 0.90625 0.1875 1.96875q0.1875 1.0625 0.703125 2.125q0.53125 1.0625 1.453125 2.046875q0.9375 0.96875 2.421875 1.71875q1.5 0.75 3.59375 1.203125q2.109375 0.453125 5.015625 0.453125q1.453125 0 2.53125 -0.078125q1.09375 -0.09375 1.984375 -0.25q0.90625 -0.15625 1.6875 -0.375q0.796875 -0.21875 1.625 -0.46875l0 -3.671875l-9.203125 0l0 -6.65625l17.421875 0l0 15.53125q-1.640625 0.5625 -3.671875 1.015625q-2.015625 0.453125 -4.171875 0.765625q-2.15625 0.328125 -4.328125 0.5q-2.171875 0.171875 -4.09375 0.171875q-2.984375 0 -5.734375 -0.40625q-2.75 -0.390625 -5.125 -1.21875q-2.375 -0.828125 -4.34375 -2.109375q-1.953125 -1.28125 -3.34375 -3.046875q-1.375 -1.78125 -2.140625 -4.0625q-0.765625 -2.296875 -0.765625 -5.15625q0 -2.828125 0.796875 -5.125q0.796875 -2.3125 2.21875 -4.078125q1.4375 -1.765625 3.4375 -3.046875q2.0 -1.296875 4.40625 -2.125q2.40625 -0.828125 5.140625 -1.21875q2.734375 -0.40625 5.625 -0.40625zm33.134216 31.1875l-8.203125 0l0 -30.40625l20.578125 0q3.3124695 0 5.6249695 0.6875q2.3125 0.6875 3.765625 1.953125q1.453125 1.25 2.109375 3.03125q0.65625 1.78125 0.65625 3.96875q0 1.9375 -0.546875 3.375q-0.546875 1.4375 -1.46875 2.46875q-0.90625 1.015625 -2.125 1.734375q-1.21875 0.703125 -2.578125 1.171875l9.9687805 12.015625l-9.6094055 0l-9.2030945 -11.203125l-8.96875 0l0 11.203125zm16.21872 -20.8125q0 -0.875 -0.234375 -1.484375q-0.21875 -0.625 -0.796875 -1.015625q-0.5780945 -0.390625 -1.5468445 -0.5625q-0.953125 -0.1875 -2.390625 -0.1875l-11.25 0l0 6.515625l11.25 0q1.4375 0 2.390625 -0.171875q0.96875 -0.1875 1.5468445 -0.578125q0.578125 -0.390625 0.796875 -1.0q0.234375 -0.625 0.234375 -1.515625zm41.875458 15.0625l-16.953125 0l-2.84375 5.75l-9.171875 0l15.921875 -30.40625l9.15625 0l15.921875 30.40625l-9.171875 0l-2.859375 -5.75zm-14.0 -5.9375l11.109375 0l-5.53125 -11.203125l-5.578125 11.203125zm46.2713 -12.109375l0 23.796875l-8.203125 0l0 -23.796875l-12.90625 0l0 -6.609375l34.03125 0l0 6.609375l-12.921875 0zm18.359192 23.796875l0 -30.40625l8.203125 0l0 30.40625l-8.203125 0zm57.072205 -15.1875q0 3.921875 -1.4375 6.921875q-1.4375 3.0 -4.125 5.015625q-2.671875 2.015625 -6.5 3.046875q-3.8125 1.015625 -8.5625 1.015625q-4.765625 0 -8.609375 -1.015625q-3.828125 -1.03125 -6.53125 -3.046875q-2.703125 -2.015625 -4.171875 -5.015625q-1.453125 -3.0 -1.453125 -6.921875q0 -3.90625 1.453125 -6.90625q1.46875 -3.0 4.171875 -5.015625q2.703125 -2.015625 6.53125 -3.046875q3.84375 -1.03125 8.609375 -1.03125q4.75 0 8.5625 1.03125q3.828125 1.03125 6.5 3.046875q2.6875 2.015625 4.125 5.015625q1.4375 3.0 1.4375 6.90625zm-8.296875 0q0 -1.703125 -0.546875 -3.390625q-0.546875 -1.703125 -1.9375 -3.046875q-1.375 -1.34375 -3.765625 -2.1875q-2.390625 -0.84375 -6.078125 -0.84375q-2.484375 0 -4.375 0.390625q-1.875 0.390625 -3.25 1.078125q-1.359375 0.671875 -2.296875 1.59375q-0.921875 0.921875 -1.484375 1.984375q-0.546875 1.046875 -0.78125 2.1875q-0.234375 1.125 -0.234375 2.234375q0 1.140625 0.234375 2.296875q0.234375 1.140625 0.78125 2.1875q0.5625 1.046875 1.484375 1.96875q0.9375 0.90625 2.296875 1.578125q1.375 0.671875 3.25 1.0625q1.890625 0.390625 4.375 0.390625q3.6875 0 6.078125 -0.84375q2.390625 -0.84375 3.765625 -2.1875q1.390625 -1.359375 1.9375 -3.046875q0.546875 -1.703125 0.546875 -3.40625zm44.505005 15.1875l-20.515625 -20.890625l0 20.890625l-8.203125 0l0 -30.40625l8.90625 0l20.546875 20.984375l0 -20.984375l8.171875 0l0 30.40625l-8.90625 0z" fill-rule="nonzero"/></g></g></svg>