<svg version="1.1" viewBox="0.0 0.0 533.0892388451443 473.3018372703412" fill="none" stroke="none" stroke-linecap="square" stroke-miterlimit="10" xmlns:xlink="http://www.w3.org/1999/xlink" xmlns="http://www.w3.org/2000/svg"><clipPath id="p.0"><path d="m0 0l533.08923 0l0 473.30185l-533.08923 0l0 -473.30185z" clip-rule="nonzero"/></clipPath><g clip-path="url(#p.0)"><path fill="#000000" fill-opacity="0.0" d="m0 0l533.08923 0l0 473.30185l-533.08923 0z" fill-rule="evenodd"/><path fill="#cfe2f3" d="m106.48294 87.48206l0 0c0 -41.19184 71.66205 -74.58443 160.06168 -74.58443c88.39963 0 160.06168 33.392586 160.06168 74.58443l0 298.3377c0 41.191864 -71.66205 74.58444 -160.06168 74.58444c-88.39963 0 -160.06168 -33.39258 -160.06168 -74.58444z" fill-rule="evenodd"/><path fill="#000000" fill-opacity="0.0" d="m426.6063 87.48206l0 0c0 41.19184 -71.66205 74.584435 -160.06168 74.584435c-88.39963 0 -160.06168 -33.392593 -160.06168 -74.584435" fill-rule="evenodd"/><path fill="#000000" fill-opacity="0.0" d="m106.48294 87.48206l0 0c0 -41.19184 71.66205 -74.58443 160.06168 -74.58443c88.39963 0 160.06168 33.392586 160.06168 74.58443l0 298.3377c0 41.191864 -71.66205 74.58444 -160.06168 74.58444c-88.39963 0 -160.06168 -33.39258 -160.06168 -74.58444z" fill-rule="evenodd"/><path stroke="#000000" stroke-width="1.0" stroke-linejoin="round" stroke-linecap="butt" d="m426.6063 87.48206l0 0c0 41.19184 -71.66205 74.584435 -160.06168 74.584435c-88.39963 0 -160.06168 -33.392593 -160.06168 -74.584435" fill-rule="evenodd"/><path stroke="#000000" stroke-width="1.0" stroke-linejoin="round" stroke-linecap="butt" d="m106.48294 87.48206l0 0c0 -41.19184 71.66205 -74.58443 160.06168 -74.58443c88.39963 0 160.06168 33.392586 160.06168 74.58443l0 298.3377c0 41.191864 -71.66205 74.58444 -160.06168 74.58444c-88.39963 0 -160.06168 -33.39258 -160.06168 -74.58444z" fill-rule="evenodd"/><path fill="#cfe2f3" d="m166.05118 223.81102l0 0c0 -21.660858 44.991867 -39.220474 100.49213 -39.220474c55.500275 0 100.49213 17.559616 100.49213 39.220474l0 156.88188c0 21.660889 -44.99185 39.22049 -100.49213 39.22049c-55.50026 0 -100.49213 -17.5596 -100.49213 -39.22049z" fill-rule="evenodd"/><path fill="#000000" fill-opacity="0.0" d="m367.03543 223.81102l0 0c0 21.660873 -44.99185 39.220474 -100.49213 39.220474c-55.50026 0 -100.49213 -17.5596 -100.49213 -39.220474" fill-rule="evenodd"/><path fill="#000000" fill-opacity="0.0" d="m166.05118 223.81102l0 0c0 -21.660858 44.991867 -39.220474 100.49213 -39.220474c55.500275 0 100.49213 17.559616 100.49213 39.220474l0 156.88188c0 21.660889 -44.99185 39.22049 -100.49213 39.22049c-55.50026 0 -100.49213 -17.5596 -100.49213 -39.22049z" fill-rule="evenodd"/><path stroke="#000000" stroke-width="1.0" stroke-linejoin="round" stroke-linecap="butt" d="m367.03543 223.81102l0 0c0 21.660873 -44.99185 39.220474 -100.49213 39.220474c-55.50026 0 -100.49213 -17.5596 -100.49213 -39.220474" fill-rule="evenodd"/><path stroke="#000000" stroke-width="1.0" stroke-linejoin="round" stroke-linecap="butt" d="m166.05118 223.81102l0 0c0 -21.660858 44.991867 -39.220474 100.49213 -39.220474c55.500275 0 100.49213 17.559616 100.49213 39.220474l0 156.88188c0 21.660889 -44.99185 39.22049 -100.49213 39.22049c-55.50026 0 -100.49213 -17.5596 -100.49213 -39.22049z" fill-rule="evenodd"/></g></svg>